<?xml version="1.0" encoding="UTF-8" standalone="no"?>
<!-- Created with Inkscape (http://www.inkscape.org/) -->

<svg
   version="1.1"
   id="svg2"
   width="400"
   height="400"
   viewBox="0 0 400 400"
   sodipodi:docname="createk.svg"
   inkscape:version="1.1 (c68e22c387, 2021-05-23)"
   inkscape:export-filename="C:\Users\g53bo\Desktop\1519861552404.png"
   inkscape:export-xdpi="600"
   inkscape:export-ydpi="600"
   xmlns:inkscape="http://www.inkscape.org/namespaces/inkscape"
   xmlns:sodipodi="http://sodipodi.sourceforge.net/DTD/sodipodi-0.dtd"
   xmlns="http://www.w3.org/2000/svg"
   xmlns:svg="http://www.w3.org/2000/svg">
  <defs
     id="defs6" />
  <sodipodi:namedview
     id="namedview4"
     pagecolor="#ffffff"
     bordercolor="#111111"
     borderopacity="1"
     inkscape:pageshadow="0"
     inkscape:pageopacity="0"
     inkscape:pagecheckerboard="1"
     showgrid="false"
     inkscape:zoom="1.3770905"
     inkscape:cx="178.27442"
     inkscape:cy="197.1548"
     inkscape:window-width="1920"
     inkscape:window-height="1057"
     inkscape:window-x="-8"
     inkscape:window-y="-8"
     inkscape:window-maximized="1"
     inkscape:current-layer="g8" />
  <g
     inkscape:groupmode="layer"
     inkscape:label="Image"
     id="g8">
    <path
       style="fill:#ff7d25;stroke:none;stroke-width:1px;stroke-linecap:butt;stroke-linejoin:miter;stroke-opacity:1;fill-opacity:1"
       d="m 303.88001,109.52216 -76.66563,44.52149 76.37997,45.3145 -73.04236,41.59179 L 80.744544,154.30039 230.55199,67.779204 Z"
       id="path451" />
    <path
       style="fill:#130c0b"
       d="m 44.499933,353.5825 c -3.72671,-1.66345 -8.03105,-6.17824 -9.43638,-9.89774 -1.52609,-4.03913 -1.32932,-19.11322 0.30041,-23.01371 1.68438,-4.03129 6.40405,-8.10951 11.22715,-9.70128 8.35666,-2.75795 19.28454,1.18073 22.69359,8.17933 l 1.63217,3.35076 -2.65832,0.33571 c -1.94668,0.24584 -3.168,-0.36399 -4.56227,-2.278 -3.90655,-5.36284 -11.76821,-7.12327 -17.82459,-3.99139 -4.17959,2.16135 -6.83668,8.39351 -6.79335,15.93368 0.0468,8.14649 1.71164,12.44925 5.92159,15.30444 2.90502,1.97019 4.42049,2.29976 8.91476,1.9387 4.68844,-0.37666 5.86395,-0.92516 8.76346,-4.08908 2.11137,-2.3039 4.25587,-3.65406 5.80386,-3.65406 2.78572,0 2.60226,1.46756 -0.79587,6.36653 -3.9894,5.75137 -15.95588,8.44343 -23.18621,5.21611 z m 44.5,-21.01622 v -22.56642 l 10.75,0.0564 c 5.912497,0.031 12.309417,0.59355 14.215367,1.25 9.06659,3.12275 10.84986,17.50701 2.86386,23.10062 l -2.18218,1.52846 2.82873,5.28224 c 1.55581,2.90523 3.92798,7.19474 5.2715,9.53224 l 2.44276,4.25 h -3.41782 c -3.28575,0 -3.60119,-0.34777 -8.16313,-9 l -4.74531,-9 h -6.89296 -6.892947 l -0.28893,8.75 c -0.28797,8.72084 -0.2981,8.75105 -3.03894,9.06642 l -2.75,0.31642 v -22.56642 z m 25.172597,-3.2942 c 2.99702,-2.99753 2.99702,-8.54691 0,-11.54444 -1.87971,-1.88003 -3.54992,-2.28282 -10.7,-2.5804 l -8.472597,-0.35261 v 8.70523 8.70523 l 8.472597,-0.35261 c 7.15008,-0.29758 8.82029,-0.70037 10.7,-2.5804 z m 27.27504,24.45194 c -0.26927,-0.70171 -0.36764,-10.71421 -0.21861,-22.25 l 0.27097,-20.97416 15.25,-0.27605 15.25,-0.27604 v 2.52604 2.52605 h -12.5 -12.5 v 7.5 7.5 h 10.56955 c 10.38903,0 10.56409,0.0384 10.25,2.25 -0.30454,2.14429 -0.8011,2.26339 -10.56955,2.53498 l -10.25,0.28499 v 7.46501 7.46502 h 12.5 12.5 v 2.5 2.5 h -15.03138 c -11.26499,0 -15.15406,-0.31969 -15.52098,-1.27584 z m 44.09229,-2.47416 c 7.51908,-17.99666 18.90477,-42.20329 19.54528,-41.55439 0.82769,0.83851 19.91479,43.70196 19.91479,44.72216 0,0.32023 -1.2375,0.5818 -2.75,0.58128 -2.37943,-8.3e-4 -3.03753,-0.70829 -4.88375,-5.25 l -2.13375,-5.24905 -10.41904,-0.28183 -10.41905,-0.28183 -2.29281,5.53183 c -2.03977,4.92132 -2.61484,5.53183 -5.21063,5.53183 h -2.91781 z m 23.86016,-20.5 c -1.93824,-4.5375 -3.87561,-8.60695 -4.30529,-9.04321 -0.62336,-0.63292 -4.15589,6.61171 -7.82279,16.04321 -0.36425,0.93688 1.5353,1.25 7.58307,1.25 h 8.06906 z m 35.59991,4.25 v -20 h -8.56955 c -8.31496,0 -8.56006,-0.0668 -8.25,-2.25 0.31719,-2.2334 0.46155,-2.252 19.56955,-2.52159 l 19.25,-0.2716 v 2.48115 c 0,2.41757 -0.21142,2.4886 -8.25,2.7716 l -8.25,0.29044 -0.27114,19.75 -0.27114,19.75 h -2.47886 -2.47886 z m 37,-2.5 v -22.5 h 15 15 v 2.46922 2.46922 l -12.25,0.28078 -12.25,0.28078 -0.29381,7.25 -0.29381,7.25 h 10.54381 10.54381 v 2.5 2.5 h -10.54381 -10.54381 l 0.29381,7.25 0.29381,7.25 12.25,0.28078 12.25,0.28078 v 2.46922 2.46922 h -15 -15 z m 49.23087,0.25 0.26913,-22.25 2.75,-0.31642 2.75,-0.31642 v 11.30011 11.30011 l 11.26565,-11.23369 c 10.63505,-10.60488 11.48867,-11.23113 15.25,-11.18802 l 3.98435,0.0457 -11.86495,11.25732 -11.86494,11.25732 11.86494,11.17773 11.86495,11.17774 -3.98435,0.0193 c -3.74952,0.0181 -4.64836,-0.64285 -15.25,-11.21442 l -11.26565,-11.23374 v 11.23369 11.23369 h -3.01913 -3.01913 z M 201.49993,248.71587 c -15.4,-8.95551 -49.7125,-28.83363 -76.25,-44.17361 -26.537497,-15.33999 -48.235157,-28.14997 -48.217037,-28.46664 0.0181,-0.31667 8.11813,-5.23127 18,-10.92133 9.881867,-5.69007 17.967037,-10.48643 17.967037,-10.65859 0,-0.17215 -7.5375,-4.70376 -16.749997,-10.07024 -9.2125,-5.36647 -17.34383,-10.29251 -18.06962,-10.94675 -1.04917,-0.94573 14.42142,-10.28815 75.485187,-45.584185 42.24265,-24.417065 77.11077,-44.2949 77.48471,-44.172967 1.20089,0.39158 75.32068,43.406889 76.11825,44.175109 0.42269,0.407137 0.64769,11.369681 0.5,24.361203 l -0.26853,23.62096 -19,-10.9132 c -10.45,-6.00226 -19.51716,-10.92503 -20.14925,-10.93949 -1.08202,-0.0247 -67.92641,38.2878 -69.65848,39.92547 -0.67206,0.63543 63.59544,38.68648 68.55537,40.58978 0.98775,0.37904 8.17475,-3.15703 18.92251,-9.31004 9.53142,-5.45666 18.34235,-10.45685 19.57985,-11.11153 l 2.25,-1.19033 v 23.94726 23.94725 l -37.45519,21.66983 c -20.60036,11.91841 -38.26286,21.8577 -39.25,22.08731 -1.05773,0.24602 -13.2937,-6.26944 -29.79481,-15.86527 z m 65,-8.50168 c 17.6,-10.15704 32.6025,-19.02899 33.33889,-19.71544 1.09098,-1.017 -1.61598,-2.93775 -14.61959,-10.37349 -15.84451,-9.06023 -17.94319,-9.93569 -19.7693,-8.24677 -0.5225,0.48324 -8.49783,5.21855 -17.72296,10.52289 -14.86403,8.54666 -17.02641,9.51199 -19,8.48193 -2.42432,-1.2653 -19.91612,-11.35345 -75.01449,-43.26354 l -35.78745,-20.72622 -15.94255,9.11629 c -8.768397,5.01396 -16.156297,9.46215 -16.417557,9.88487 -0.26125,0.42271 32.242237,19.69198 72.229997,42.82058 61.86976,35.78498 73.00307,41.89659 74.70501,41.00913 1.1,-0.57359 16.4,-9.35319 34,-19.51023 z M 247.05834,207.7804 c 8.76787,-5.07071 15.94159,-9.50314 15.94159,-9.84985 0,-0.34671 -15.8625,-9.77281 -35.25,-20.9469 -19.3875,-11.17409 -36.03403,-20.8441 -36.9923,-21.48891 -1.4904,-1.00289 3.60471,-4.26794 35.24179,-22.58363 20.34124,-11.77619 36.98777,-21.68596 36.99229,-22.02171 0.008,-0.62728 -31.24217,-18.889538 -32.32402,-18.889538 -0.508,0 -24.05198,13.532768 -95.54156,54.916028 -6.2556,3.62118 -11.4306,6.97397 -11.5,7.45064 -0.0694,0.47667 9.9988,6.71893 22.3738,13.8717 65.70538,37.9778 84.45223,48.76163 84.76832,48.76163 0.19168,0 7.52221,-4.14876 16.29009,-9.21946 z m 56.61136,-27.44411 c -0.58632,-0.58632 -29.05038,16.30539 -29.43859,17.47003 -0.18929,0.56786 2.53948,2.6451 6.06393,4.61608 3.52445,1.97099 10.18737,5.83196 14.80649,8.57994 l 8.3984,4.99632 0.27366,-17.64241 c 0.15051,-9.70333 0.10376,-17.81231 -0.10389,-18.01996 z M 142.08739,137.87701 c 62.95055,-36.41741 88.13087,-50.877148 88.59794,-50.877148 0.27918,0 8.71444,4.725 18.74502,10.5 10.03058,5.774998 18.53889,10.499998 18.90735,10.499998 1.15936,0 32.66343,-18.219339 32.63845,-18.875373 -0.0131,-0.343544 -15.82317,-9.742476 -35.13353,-20.886516 L 230.73288,47.976081 162.1164,87.629866 c -37.73906,21.809584 -70.558747,40.775144 -72.932647,42.145704 -2.72142,1.57118 -3.96571,2.84239 -3.36763,3.44047 0.5217,0.52171 7.86399,4.93538 16.316177,9.80816 8.4522,4.87278 15.40699,8.88572 15.45509,8.91763 0.0481,0.0319 11.0731,-6.29725 24.5,-14.06482 z m 161.70007,-35.91571 -0.28753,-9.038559 -14.5,8.470839 c -7.975,4.65896 -14.5,8.9691 -14.5,9.5781 0,0.60899 6.525,4.89802 14.5,9.53117 l 14.5,8.42391 0.28753,-8.96345 c 0.15814,-4.9299 0.15814,-13.0308 0,-18.00201 z"
       id="path174" />
  </g>
</svg>
