<?xml version="1.0" standalone="no"?>
<!DOCTYPE svg PUBLIC "-//W3C//DTD SVG 20010904//EN"
 "http://www.w3.org/TR/2001/REC-SVG-20010904/DTD/svg10.dtd">
<svg version="1.0" xmlns="http://www.w3.org/2000/svg"
 width="2752.000000pt" height="604.000000pt" viewBox="0 0 2752.000000 604.000000"
 preserveAspectRatio="xMidYMid meet">

<g transform="translate(0.000000,604.000000) scale(0.100000,-0.100000)"
fill="#000000" stroke="none">
<path d="M3976 5992 c-16 -26 -76 -119 -132 -207 -56 -88 -194 -306 -307 -485
-185 -293 -896 -1418 -1062 -1680 -100 -158 -347 -548 -440 -695 -323 -511
-404 -639 -450 -710 -28 -44 -95 -150 -149 -235 -54 -85 -115 -182 -136 -215
-36 -57 -273 -432 -625 -990 -86 -137 -225 -358 -309 -489 -83 -132 -153 -243
-154 -248 -2 -4 6141 -8 13652 -8 l13656 0 0 3005 0 3005 -11757 0 -11758 0
-29 -48z m9562 -158 c19 -8 41 -14 49 -14 21 0 140 -53 212 -95 31 -18 133
-119 147 -147 15 -30 12 -45 -32 -133 -71 -143 -141 -246 -179 -263 -20 -9
-30 -6 -67 20 -24 17 -46 35 -49 41 -14 20 -137 79 -204 97 -82 22 -131 24
-157 6 -12 -9 -36 -16 -52 -16 -83 0 -236 -167 -236 -257 0 -15 -7 -50 -17
-79 -15 -49 -15 -56 0 -111 10 -33 17 -69 17 -80 0 -56 121 -223 161 -223 9 0
22 -7 29 -15 7 -8 24 -15 37 -15 14 0 40 -7 59 -16 36 -17 94 -15 174 6 49 13
164 66 183 84 63 61 118 72 154 34 31 -34 167 -239 182 -276 18 -44 -2 -84
-78 -154 -65 -61 -177 -138 -201 -138 -8 0 -24 -7 -34 -15 -11 -8 -29 -15 -40
-15 -12 0 -34 -8 -51 -17 -26 -15 -59 -18 -245 -18 -189 0 -218 2 -240 18 -13
9 -39 17 -56 17 -17 0 -37 7 -44 15 -7 8 -23 15 -35 15 -12 0 -28 7 -35 15 -7
8 -18 15 -25 15 -22 0 -139 96 -212 174 -49 52 -85 103 -114 162 -23 47 -46
87 -51 90 -4 3 -8 16 -8 30 0 14 -6 35 -12 47 -12 21 -29 101 -47 218 -12 78
-4 221 14 255 8 16 15 52 15 80 0 34 5 56 15 64 8 7 15 23 15 35 0 20 26 75
99 212 25 47 251 263 275 263 5 0 19 9 33 20 14 11 34 20 43 20 10 0 23 7 30
15 7 8 23 15 37 15 13 0 34 6 46 12 32 18 131 25 306 20 104 -2 166 -8 189
-18z m4501 3 c11 -9 12 -35 7 -132 -4 -66 -11 -124 -16 -129 -12 -12 -14 -396
-2 -396 8 0 29 15 74 53 12 9 28 17 36 17 9 0 24 8 34 17 16 15 42 17 171 18
160 0 163 -1 272 -57 96 -50 197 -154 230 -238 3 -8 13 -28 21 -43 7 -16 14
-37 14 -47 0 -9 9 -46 20 -80 41 -129 18 -349 -49 -475 -49 -91 -108 -167
-165 -211 -31 -24 -60 -44 -65 -44 -5 0 -14 -7 -21 -15 -7 -8 -20 -15 -29 -15
-9 0 -29 -8 -46 -17 -25 -15 -57 -18 -190 -18 l-160 0 -65 33 c-36 18 -69 37
-74 42 -5 5 -18 -3 -30 -17 l-21 -24 -219 0 c-128 0 -223 4 -229 10 -5 5 -8
79 -6 183 11 513 -4 1302 -27 1481 -7 59 12 87 61 87 17 0 37 6 43 13 9 8 63
14 160 18 165 7 250 2 271 -14z m-7684 -8 c12 -12 437 -12 469 0 13 6 96 11
183 13 151 2 161 1 190 -20 27 -19 33 -30 38 -80 4 -31 11 -70 16 -87 5 -16
12 -84 16 -150 5 -105 4 -122 -11 -134 -14 -12 -54 -13 -220 -8 -112 4 -216
11 -230 17 -43 16 -218 13 -243 -5 -34 -24 -37 -100 -5 -148 l26 -39 60 6
c109 11 556 28 571 22 21 -8 20 -160 0 -196 -10 -18 -14 -60 -15 -146 0 -92
-3 -124 -14 -133 -19 -16 -159 -12 -192 5 -36 19 -412 20 -437 2 -24 -19 -25
-151 -2 -196 10 -19 22 -35 29 -37 104 -29 131 -33 236 -31 65 2 125 8 137 14
12 7 89 15 170 18 129 6 150 5 162 -9 17 -22 12 -270 -6 -289 -7 -6 -13 -35
-13 -63 0 -37 -6 -60 -25 -88 l-26 -37 -157 0 c-106 0 -162 4 -169 11 -9 9
-122 11 -413 10 -221 -1 -417 1 -436 5 -50 9 -67 47 -61 133 3 36 10 127 16
201 11 148 15 1024 5 1227 -4 71 -11 136 -16 146 -12 22 13 64 45 77 27 11
308 1 322 -11z m1793 -19 c12 -21 22 -46 22 -54 0 -13 17 -51 42 -96 8 -15 14
-27 50 -107 11 -24 24 -45 29 -49 12 -7 11 -61 -2 -69 -5 -4 -50 -8 -100 -8
-52 -1 -93 -7 -97 -13 -4 -6 -18 -14 -32 -17 -44 -11 -90 -64 -90 -102 0 -40
24 -79 160 -255 10 -14 39 -47 64 -75 25 -27 46 -55 46 -61 0 -6 7 -17 15 -24
8 -7 15 -22 15 -33 0 -11 8 -29 18 -40 26 -29 25 -277 -2 -333 -10 -21 -28
-59 -40 -83 -11 -24 -41 -66 -66 -94 -50 -56 -205 -177 -227 -177 -8 0 -21 -7
-29 -15 -9 -8 -24 -15 -33 -15 -10 0 -24 -7 -31 -15 -7 -8 -24 -15 -39 -15
-14 0 -39 -7 -56 -16 -16 -9 -62 -19 -101 -21 l-70 -5 -42 48 c-23 27 -58 80
-78 119 -20 38 -43 79 -50 90 -8 11 -14 26 -14 34 0 8 -8 23 -17 33 -11 13
-17 35 -16 67 1 62 7 71 46 71 18 1 50 7 72 15 22 8 59 17 82 21 23 3 48 12
54 20 6 8 18 14 26 14 8 0 30 16 49 35 31 32 34 41 34 95 0 57 -28 130 -50
130 -5 0 -11 8 -14 18 -4 9 -29 42 -57 72 -106 115 -158 195 -181 280 -25 94
-9 289 28 331 8 8 14 19 14 23 0 22 85 114 143 153 37 25 70 50 73 54 3 5 12
9 21 9 9 0 24 6 32 14 16 15 82 41 137 55 17 5 39 13 50 19 10 6 57 11 104 12
l85 0 23 -40z m2812 19 c58 0 137 3 175 6 76 7 105 -4 107 -40 4 -113 -6 -298
-17 -335 -11 -36 -13 -139 -12 -505 l2 -460 72 -3 c40 -2 81 1 91 7 9 5 138
13 285 17 325 8 307 15 307 -117 0 -48 -4 -90 -9 -93 -4 -3 -10 -54 -13 -114
-4 -94 -8 -113 -28 -142 l-23 -33 -541 7 c-314 4 -545 11 -551 17 -5 5 -23 9
-41 9 -17 0 -41 8 -53 18 l-22 17 -2 858 -3 859 25 20 c22 17 35 19 86 13 33
-4 107 -6 165 -6z m-5945 -30 c13 -13 357 -12 392 2 15 6 127 13 248 16 181 5
222 3 232 -8 14 -17 22 -387 9 -408 -7 -11 -37 -13 -165 -7 -86 4 -166 8 -179
9 -45 4 -52 -46 -52 -366 0 -187 4 -295 11 -308 6 -13 13 -142 16 -339 5 -269
4 -320 -8 -323 -8 -3 -34 -10 -59 -17 -26 -8 -115 -15 -212 -17 -137 -3 -173
-1 -197 12 -17 8 -39 15 -49 15 -38 0 -54 44 -47 123 4 40 9 332 11 651 l4
578 -22 -6 c-13 -3 -96 -9 -185 -13 -125 -5 -166 -3 -178 7 -20 16 -20 116 -1
167 8 21 17 80 19 132 6 130 -3 125 222 117 99 -4 184 -11 190 -17z m-1939
-464 c10 -8 29 -15 41 -15 12 0 25 -5 28 -10 4 -6 23 -17 43 -26 57 -23 191
-168 235 -252 20 -40 37 -81 37 -91 0 -10 7 -32 15 -47 10 -20 15 -59 15 -121
0 -76 -4 -98 -21 -128 -26 -44 -46 -55 -101 -55 -24 0 -49 -5 -55 -11 -8 -8
-107 -14 -300 -18 -215 -4 -288 -9 -288 -18 0 -35 85 -119 129 -128 17 -4 46
-13 65 -22 36 -16 32 -17 171 20 66 17 126 43 135 57 3 5 24 10 45 10 49 0 67
-22 144 -177 41 -81 42 -90 18 -120 -20 -27 -112 -93 -128 -93 -6 0 -17 -7
-24 -15 -7 -8 -22 -15 -34 -15 -11 0 -34 -8 -51 -17 -45 -26 -391 -32 -455 -8
-25 9 -54 19 -65 22 -11 3 -53 21 -93 41 -126 63 -234 191 -294 347 -21 55
-23 76 -23 245 0 160 2 188 18 210 9 13 17 34 17 45 0 71 187 307 262 331 13
4 34 15 47 25 13 11 33 19 45 19 11 1 32 7 46 15 37 21 348 21 376 0z m9697
-67 c14 -10 31 -18 38 -18 6 0 28 -13 49 -30 47 -37 56 -37 63 -2 3 15 16 38
28 51 21 22 26 23 108 17 47 -4 105 -14 129 -22 23 -8 59 -14 80 -14 24 0 51
-9 75 -25 31 -22 37 -32 37 -61 0 -19 -8 -47 -17 -61 -17 -25 -18 -68 -18
-533 l0 -505 -60 -14 c-33 -8 -124 -16 -202 -18 -168 -5 -193 3 -193 66 0 20
-5 43 -10 51 -9 13 -13 12 -28 -6 -26 -31 -98 -84 -114 -84 -8 0 -23 -9 -33
-20 -16 -18 -31 -20 -153 -20 -112 0 -142 3 -176 19 -23 11 -48 22 -56 25 -14
5 -37 19 -64 38 -104 73 -209 225 -247 358 -20 72 -23 304 -5 352 9 21 16 54
16 72 0 18 7 39 15 46 8 7 15 20 15 29 0 16 80 132 123 180 38 41 154 111 185
111 10 0 27 6 38 14 27 19 74 24 224 22 102 -1 131 -4 153 -18z m-8282 -239
c13 -26 4 -130 -15 -168 -7 -14 -16 -59 -19 -100 -3 -41 -11 -79 -17 -85 -5
-5 -10 -22 -10 -36 0 -48 -9 -50 -243 -50 -147 0 -225 -4 -240 -12 -31 -16
-362 -25 -371 -9 -4 6 -7 50 -7 98 0 62 5 91 16 103 8 9 15 31 15 48 0 17 9
51 19 74 11 24 22 55 25 69 3 14 17 38 31 53 25 27 27 27 113 22 248 -16 306
-17 326 -7 26 13 75 17 238 19 121 2 128 1 139 -19z m15369 -237 c58 -4 111
-11 118 -16 7 -4 52 -17 100 -27 145 -32 156 -35 177 -46 25 -13 128 -53 137
-53 4 0 30 -13 58 -30 28 -16 60 -30 71 -30 11 0 22 -7 25 -15 3 -8 15 -17 26
-21 22 -7 160 -98 213 -140 49 -40 184 -174 280 -279 44 -48 88 -96 98 -106 9
-10 17 -21 17 -24 0 -19 174 -192 231 -230 24 -16 48 -36 52 -42 4 -7 19 -13
32 -13 14 0 25 -4 25 -9 0 -11 63 -49 95 -57 13 -3 29 -12 36 -20 6 -8 24 -14
39 -14 15 0 33 -7 40 -15 7 -8 24 -15 39 -15 14 0 40 -9 56 -20 17 -11 43 -20
58 -20 16 0 38 -5 50 -12 12 -6 35 -15 52 -19 61 -15 180 -63 195 -79 3 -3 39
-28 80 -55 73 -49 199 -169 223 -211 94 -168 101 -195 99 -397 -1 -125 -5
-176 -16 -198 -8 -16 -17 -41 -20 -57 -15 -65 -215 -242 -275 -242 -11 0 -35
-6 -53 -14 -53 -24 -139 -44 -203 -50 -93 -7 -290 22 -342 52 -12 6 -29 12
-37 12 -9 0 -46 16 -82 36 -67 36 -145 97 -262 205 -35 33 -68 59 -73 59 -5 0
-18 9 -29 20 -11 11 -27 20 -35 20 -8 0 -15 4 -15 10 0 5 -20 15 -45 21 -25 6
-48 15 -51 20 -9 15 -111 10 -127 -6 -8 -7 -27 -17 -43 -21 -33 -9 -42 -15
-103 -74 -42 -40 -44 -45 -24 -48 12 -2 35 4 52 12 16 9 38 16 48 16 10 0 32
9 50 20 29 17 36 18 70 6 21 -7 71 -17 111 -21 40 -4 75 -11 78 -16 3 -5 20
-16 37 -24 76 -36 134 -80 143 -108 4 -12 13 -26 20 -32 19 -15 54 -111 54
-150 0 -19 -10 -63 -21 -97 -27 -78 -106 -161 -201 -212 l-67 -36 -135 0
c-112 0 -144 3 -187 20 -28 11 -58 27 -66 35 -8 8 -21 15 -29 15 -29 0 -134
129 -134 165 0 12 -5 36 -11 53 -21 62 21 221 64 240 4 2 7 8 7 14 0 6 -17 -5
-38 -24 -32 -29 -77 -59 -162 -107 -8 -5 -31 -16 -50 -24 -19 -8 -53 -23 -75
-32 -36 -16 -76 -24 -185 -42 -87 -13 -316 -13 -360 1 -25 8 -70 18 -100 22
-30 3 -61 10 -70 15 -8 4 -42 20 -75 35 -60 27 -115 64 -169 116 -17 15 -33
28 -38 28 -4 0 -8 5 -8 11 0 7 -16 31 -35 55 -19 23 -35 47 -35 54 0 15 -57
94 -105 145 -22 23 -69 56 -105 74 -59 28 -72 30 -140 27 -124 -6 -182 -31
-340 -148 -14 -10 -42 -19 -62 -20 -40 -1 -61 13 -158 108 -66 64 -73 73 -90
105 -7 13 -16 26 -19 29 -8 7 -29 40 -47 75 -8 17 -26 50 -39 74 -14 24 -25
50 -25 58 0 7 -9 30 -20 50 -11 21 -20 50 -20 65 0 17 -8 31 -20 38 -11 6 -18
15 -15 20 3 5 -397 10 -984 12 -707 2 -993 6 -1001 14 -6 6 -13 35 -16 65 -7
68 19 121 62 130 16 4 460 7 987 8 l957 1 0 98 c1 65 5 105 15 122 8 14 14 43
15 65 0 28 6 46 20 58 11 9 20 28 20 41 0 29 94 217 115 229 8 4 15 13 15 19
0 19 34 87 44 88 11 0 56 48 56 60 0 17 264 250 284 250 3 0 14 8 25 18 33 30
65 52 77 52 6 0 17 7 24 15 7 8 21 15 32 15 11 0 37 13 57 29 20 15 47 31 61
35 25 7 70 26 123 52 16 8 40 14 53 14 14 0 42 9 64 20 22 11 54 20 73 20 19
0 56 7 83 15 27 8 74 15 104 16 30 0 78 4 105 9 53 9 189 6 365 -8z m-19245
-887 c230 -35 373 -109 468 -245 42 -60 64 -110 72 -165 l7 -45 3127 0 c2419
0 3130 -3 3139 -12 27 -27 8 -135 -30 -165 -11 -9 -3359 -23 -5664 -23 l-571
0 -12 -57 c-16 -80 -62 -156 -140 -232 -95 -92 -238 -151 -415 -170 -132 -15
-393 -14 -402 1 -4 6 -6 57 -5 114 2 91 0 103 -16 108 -10 3 -101 4 -203 2
-102 -1 -191 0 -197 2 -10 3 -13 38 -13 127 l0 122 66 6 c37 4 128 4 204 0
108 -5 139 -3 145 7 5 8 8 43 8 79 l0 66 -204 0 c-112 0 -210 4 -216 8 -13 8
-17 225 -4 246 5 7 80 12 216 13 l210 3 1 100 c1 55 2 106 3 113 2 18 299 16
426 -3z m9282 -455 c12 0 29 -8 38 -17 25 -24 16 -109 -15 -151 l-24 -32
-1059 0 c-710 0 -1065 3 -1078 10 -26 15 -26 97 1 150 17 33 25 39 57 42 27 2
1850 1 2080 -2z m2801 -12 c7 -7 12 -38 12 -69 0 -49 -4 -61 -29 -88 l-29 -31
-1047 0 c-702 0 -1053 3 -1066 10 -36 20 -18 154 25 182 6 4 486 8 1067 8 807
0 1058 -3 1067 -12z m2780 0 c14 -14 16 -87 2 -122 -5 -14 -18 -34 -30 -46
-20 -20 -26 -20 -1078 -20 -810 0 -1061 3 -1070 12 -20 20 -15 116 9 154 l21
34 1067 0 c817 0 1070 -3 1079 -12z m-8713 -718 c3 -11 4 -29 0 -40 -5 -17
-17 -20 -103 -22 l-97 -3 -3 -332 -2 -333 -80 0 c-70 0 -81 2 -90 21 -8 14
-11 116 -8 330 4 357 18 317 -117 321 -75 3 -80 4 -83 26 -8 53 -14 52 292 52
276 0 285 -1 291 -20z m-3784 -21 c5 -8 9 -164 9 -351 0 -389 5 -368 -91 -368
-99 0 -99 0 -99 147 0 110 -2 124 -14 108 -12 -17 -31 -19 -177 -21 -90 -2
-167 -3 -171 -3 -5 -1 -8 -17 -8 -36 0 -30 6 -38 40 -60 41 -26 70 -32 70 -15
0 5 11 12 25 16 14 3 25 10 25 15 0 5 9 18 20 29 15 15 33 20 79 20 69 0 84
-12 75 -61 -8 -41 -43 -81 -100 -114 -39 -23 -53 -25 -156 -25 -122 0 -128 2
-187 61 -42 43 -61 72 -61 94 -1 11 -7 31 -15 45 -8 14 -14 43 -14 65 0 22 6
51 14 65 8 14 15 36 15 50 0 26 59 97 114 138 27 20 41 22 141 22 98 0 115 -3
135 -20 13 -11 29 -20 36 -20 17 0 74 -83 74 -107 0 -10 6 -28 14 -39 8 -11
16 -31 19 -44 2 -14 5 70 6 185 1 116 5 215 9 221 12 19 35 24 100 21 42 -2
66 -8 73 -18z m1917 -25 c4 -44 -15 -56 -90 -52 -61 3 -63 4 -66 31 -6 53 1
58 80 55 l73 -3 3 -31z m14087 -48 c21 -11 47 -27 56 -36 68 -62 99 -96 99
-109 0 -9 7 -25 15 -35 23 -31 19 -127 -7 -178 -28 -53 -123 -146 -157 -155
-14 -3 -32 -11 -40 -17 -8 -6 -63 -12 -124 -15 l-110 -3 -75 38 c-70 37 -142
95 -142 116 0 6 -9 21 -20 35 -16 20 -20 41 -20 94 0 59 5 77 35 133 36 65 49
80 89 103 70 40 97 48 176 53 113 8 177 1 225 -24z m-14747 12 c7 -7 12 -36
12 -65 l0 -53 38 0 c58 0 88 -32 72 -76 -6 -16 -20 -23 -59 -28 l-51 -7 0
-139 c0 -76 4 -150 10 -164 9 -24 15 -26 64 -26 44 0 57 -4 66 -19 31 -58 1
-81 -105 -81 -88 0 -114 7 -155 39 -25 20 -25 22 -30 208 l-5 188 -34 3 -33 3
6 -36 c10 -50 -5 -65 -66 -65 -47 0 -53 3 -90 45 -47 54 -70 56 -115 13 -33
-32 -33 -32 -33 -128 0 -94 1 -97 31 -128 17 -18 40 -32 50 -32 10 0 39 20 66
45 42 40 52 45 94 45 29 0 53 -6 62 -15 23 -23 -5 -91 -56 -137 -48 -43 -87
-52 -204 -46 -64 3 -84 8 -111 28 -52 39 -89 101 -97 162 l-7 53 -181 -5
c-155 -4 -182 -7 -185 -21 -6 -30 18 -69 57 -94 l41 -25 39 20 c21 12 49 34
61 50 20 26 29 30 75 30 28 0 60 -6 70 -14 17 -12 17 -17 5 -47 -16 -41 -64
-94 -105 -116 -34 -18 -183 -29 -241 -19 -38 8 -134 87 -134 111 0 7 -7 18
-15 25 -12 10 -15 37 -15 124 0 109 1 112 33 161 17 27 52 63 77 80 43 29 50
30 150 30 100 0 108 -2 155 -31 37 -23 58 -44 80 -87 35 -65 45 -77 45 -53 0
31 31 80 78 123 53 49 92 58 206 51 60 -4 80 -10 108 -32 l36 -27 6 25 c6 24
44 41 77 34 11 -2 15 12 17 57 2 33 9 63 15 67 19 12 112 9 125 -4z m6097 -18
c4 -12 5 -40 3 -63 l-3 -42 50 -5 c49 -5 50 -5 53 -42 3 -40 -2 -44 -72 -50
l-29 -3 1 -164 c1 -120 5 -167 14 -173 7 -5 32 -7 55 -5 50 5 66 -8 61 -50
l-3 -28 -101 -3 -101 -3 -37 38 -36 37 0 178 0 178 -56 0 c-48 0 -62 -5 -95
-31 -21 -17 -39 -38 -39 -48 0 -9 -6 -23 -12 -29 -9 -9 -15 -63 -18 -165 l-5
-152 -70 0 -70 0 -3 244 c-2 171 1 248 9 257 14 16 124 19 134 4 4 -6 12 -7
18 -3 7 4 55 10 107 13 l95 5 3 50 c4 75 4 75 76 75 56 0 65 -3 71 -20z
m-4986 -130 c66 -48 81 -71 78 -120 l-2 -45 -62 -3 c-58 -3 -63 -1 -79 25 -22
35 -54 62 -75 63 -8 0 -30 -15 -48 -34 -33 -34 -34 -38 -35 -119 -1 -91 9
-120 50 -150 23 -17 28 -18 58 -3 18 8 38 27 44 40 13 29 41 39 103 34 l44 -3
3 -43 c4 -51 -26 -94 -91 -129 -35 -19 -57 -23 -135 -23 -82 0 -99 3 -137 26
-48 28 -81 75 -103 144 -23 74 -26 134 -8 168 9 17 16 39 16 50 0 21 94 130
124 143 12 5 66 8 121 6 89 -2 104 -5 134 -27z m-630 -3 c13 -33 -2 -61 -35
-67 -40 -7 -94 -38 -94 -54 0 -7 -7 -19 -15 -26 -11 -10 -15 -46 -17 -179 l-3
-166 -64 -3 c-35 -2 -68 1 -73 6 -9 9 -13 485 -4 501 4 6 66 10 152 10 140 0
145 -1 153 -22z m166 -237 l0 -255 -67 -3 c-65 -3 -68 -2 -74 23 -3 14 -5 127
-2 251 3 184 6 227 18 235 8 5 40 8 70 7 l55 -3 0 -255z m2043 243 c9 -16 11
-16 27 0 12 13 34 17 84 17 72 0 91 -10 91 -47 0 -13 5 -23 10 -23 6 0 10 4
10 9 0 6 24 22 52 36 50 25 60 26 173 23 113 -3 122 -5 156 -31 64 -48 70 -76
67 -292 l-3 -190 -59 -3 c-44 -2 -63 1 -77 14 -18 16 -20 16 -37 1 -15 -14
-40 -17 -121 -17 -100 0 -104 1 -142 30 -21 17 -41 41 -44 53 -3 12 -11 32
-18 45 -8 18 -8 28 1 42 7 11 12 26 12 34 0 25 41 66 91 91 42 22 62 25 149
25 l100 0 0 35 c0 31 -5 37 -42 55 -23 11 -52 20 -65 20 -24 0 -70 -25 -88
-47 -11 -14 -30 -17 -92 -15 -41 2 -43 4 -43 32 0 28 -2 30 -40 30 -34 0 -48
-7 -82 -39 l-42 -39 -2 -167 c-1 -131 -4 -169 -15 -176 -18 -11 -120 -11 -137
-1 -10 7 -13 64 -13 252 0 188 3 245 13 252 7 4 36 8 65 8 38 0 54 -4 61 -17z
m895 0 c18 -17 19 -17 32 1 12 16 26 18 109 14 89 -3 97 -5 127 -33 58 -55 67
-93 70 -287 1 -96 -1 -180 -5 -186 -4 -7 -33 -12 -71 -12 -61 0 -64 1 -69 28
-3 15 -5 99 -4 186 l1 160 -34 28 c-42 35 -59 35 -90 1 -54 -61 -54 -58 -59
-232 l-5 -166 -70 0 -70 0 -3 235 c-1 129 0 245 3 258 5 20 12 22 62 22 40 0
62 -5 76 -17z m749 -7 c56 -27 88 -64 88 -100 0 -25 -2 -26 -59 -26 -50 0 -67
5 -104 30 -52 35 -82 37 -115 10 -46 -38 -10 -66 113 -90 56 -11 121 -37 148
-60 19 -15 57 -90 57 -110 0 -28 -43 -91 -82 -119 l-42 -31 -136 0 c-116 0
-138 2 -152 18 -9 9 -27 26 -40 37 -38 33 -60 74 -54 101 6 22 11 24 71 24 55
0 65 -3 70 -20 10 -33 73 -74 110 -73 35 1 80 27 90 53 10 24 -44 60 -90 60
-22 1 -51 7 -65 15 -14 8 -36 14 -50 15 -14 0 -44 17 -70 39 -42 36 -45 41
-46 92 -2 63 11 88 68 129 39 29 46 30 142 30 85 -1 109 -4 148 -24z m291 4
l14 -20 18 20 c15 17 31 20 104 20 93 -1 139 -19 179 -71 44 -56 52 -85 52
-192 0 -133 -23 -183 -109 -239 -34 -23 -187 -25 -217 -3 -23 17 -43 20 -26 3
7 -7 12 -44 12 -94 0 -65 -3 -83 -16 -88 -23 -9 -117 -7 -132 3 -20 12 -21
659 -1 672 8 5 35 9 61 9 36 0 50 -5 61 -20z m777 0 c14 -11 29 -20 34 -20 13
0 48 -42 74 -88 19 -35 22 -56 22 -140 0 -76 -4 -102 -15 -112 -8 -7 -15 -18
-15 -25 0 -17 -66 -85 -83 -85 -8 0 -20 -7 -27 -15 -10 -12 -37 -15 -121 -15
-97 0 -112 2 -143 24 -49 33 -59 45 -87 101 -20 42 -24 64 -23 140 0 76 4 96
24 130 28 48 60 85 73 85 5 0 20 9 34 20 22 17 41 20 127 20 85 0 105 -4 126
-20z m-3675 -199 c3 -11 3 -31 -1 -45 l-6 -27 -142 3 -141 3 -3 28 c-7 56 -4
57 147 57 129 0 140 -1 146 -19z m4693 -219 c14 -5 17 -102 3 -102 -4 0 -21
-18 -36 -40 -26 -37 -31 -40 -76 -40 -57 0 -67 11 -40 46 24 31 27 54 7 54 -8
0 -18 9 -21 20 -10 32 4 58 33 63 33 6 113 5 130 -1z m-2136 -902 c33 -9 38
-15 38 -40 0 -16 -5 -32 -12 -36 -6 -4 -93 -8 -192 -8 l-181 -1 -3 -122 -3
-123 145 0 c138 0 145 -1 151 -21 4 -11 4 -31 1 -45 l-6 -24 -145 0 -146 0 3
-121 3 -121 179 0 c99 1 188 -4 198 -9 18 -10 23 -34 12 -63 -5 -14 -39 -16
-274 -16 -235 0 -269 2 -274 16 -9 23 -7 707 2 720 4 7 18 14 32 16 54 10 435
7 472 -2z m3137 -9 c3 -5 24 -17 45 -27 46 -22 104 -97 105 -136 1 -34 -23
-48 -83 -48 -44 0 -76 18 -76 43 0 19 -40 50 -96 73 l-51 21 -44 -24 c-66 -35
-73 -105 -12 -119 15 -4 39 -12 53 -19 14 -7 36 -18 50 -24 14 -6 32 -15 40
-19 30 -18 86 -40 112 -46 16 -4 53 -31 83 -61 l55 -55 0 -71 c0 -48 -5 -81
-17 -102 -25 -45 -74 -97 -92 -97 -8 0 -22 -6 -30 -14 -29 -26 -309 -27 -335
-1 -8 8 -22 15 -31 15 -25 0 -112 95 -120 132 -9 41 12 58 74 58 56 0 67 -7
89 -51 9 -18 31 -40 47 -48 17 -8 38 -18 47 -23 24 -11 95 -10 103 1 3 5 19
12 35 16 17 4 35 15 40 25 25 47 16 130 -14 130 -7 0 -19 7 -26 15 -7 8 -23
15 -36 15 -12 0 -25 4 -28 9 -8 12 -110 61 -128 61 -18 0 -106 45 -130 67 -41
37 -75 151 -49 167 5 3 12 18 15 32 9 33 55 84 77 84 9 0 22 6 29 14 6 8 24
17 38 20 43 7 255 -3 261 -13z m5683 -9 c69 -36 148 -132 148 -180 0 -41 -17
-52 -81 -52 l-57 0 -31 55 c-32 56 -92 105 -130 105 -30 0 -86 -37 -99 -65 -6
-14 -16 -25 -22 -25 -5 0 -10 -10 -10 -23 0 -12 -9 -40 -20 -62 -29 -56 -28
-170 1 -220 12 -19 19 -41 16 -49 -3 -8 3 -22 14 -32 10 -9 19 -23 19 -31 0
-8 13 -22 30 -31 16 -9 30 -20 30 -24 0 -5 13 -8 29 -8 57 0 126 58 159 133
12 27 14 28 74 25 57 -3 63 -5 72 -29 17 -51 -48 -146 -134 -196 -41 -24 -54
-26 -165 -27 l-120 -1 -50 36 c-53 38 -91 86 -127 159 -19 40 -22 62 -22 190
-1 123 2 150 17 173 9 14 17 32 17 40 0 18 98 127 115 127 7 0 18 6 25 14 16
21 50 25 165 21 75 -3 109 -8 137 -23z m-794 -370 l2 -352 -26 -10 c-41 -16
-92 -12 -113 9 -17 17 -20 18 -35 3 -20 -20 -149 -29 -186 -13 -74 33 -92 54
-140 163 -44 102 -9 233 85 316 l48 42 87 0 c66 0 91 -4 100 -15 25 -30 30
-13 30 93 0 60 3 112 7 116 4 4 37 6 73 4 l65 -3 3 -353z m4080 325 c5 -44
-13 -57 -78 -57 -68 0 -85 14 -75 60 l7 31 71 -3 c71 -3 72 -4 75 -31z m-8573
-47 c11 -9 16 -28 15 -54 -3 -67 -4 -66 50 -66 45 0 50 -2 56 -27 10 -38 -7
-57 -57 -63 l-44 -5 -5 -142 c-7 -190 -8 -187 62 -193 66 -6 81 -17 76 -56 -4
-37 -39 -47 -143 -40 -76 5 -82 7 -112 41 l-33 35 0 180 0 180 -38 0 c-43 0
-62 14 -62 45 0 31 19 45 62 45 l38 0 0 53 c0 55 6 71 30 79 25 9 89 2 105
-12z m-1515 -60 c10 -5 21 -21 24 -35 5 -20 13 -25 36 -25 31 0 70 -42 70 -77
0 -10 9 -35 20 -56 11 -20 20 -47 20 -60 0 -13 7 -32 15 -43 8 -10 15 -31 15
-46 0 -16 4 -28 10 -28 13 0 40 54 40 82 0 13 7 32 15 42 8 11 15 31 15 44 0
13 6 36 14 50 7 15 18 41 22 57 9 29 12 30 72 33 73 3 84 -8 58 -62 -9 -19
-16 -43 -16 -54 0 -11 -7 -25 -15 -32 -8 -7 -15 -22 -15 -34 0 -12 -7 -31 -15
-42 -8 -10 -15 -28 -15 -39 0 -11 -9 -38 -20 -60 -11 -22 -20 -47 -20 -55 0
-8 -7 -24 -15 -34 -8 -11 -15 -27 -15 -37 0 -9 -7 -30 -15 -45 -8 -16 -15 -36
-15 -45 0 -9 -8 -27 -17 -40 -10 -13 -23 -33 -29 -44 -6 -11 -21 -25 -33 -31
-13 -7 -28 -17 -34 -23 -17 -17 -182 -14 -197 4 -11 13 -15 13 -33 0 -17 -12
-57 -15 -184 -15 -151 0 -164 1 -196 23 -54 36 -72 66 -71 121 0 36 6 53 20
65 17 14 20 25 16 82 -4 58 -1 69 17 86 l21 20 -20 25 c-16 21 -20 41 -20 95
0 78 10 99 73 144 37 27 47 29 128 29 86 0 87 0 122 35 32 32 40 35 92 35 31
0 65 -4 75 -10z m3603 -11 c16 -26 0 -69 -26 -69 -12 -1 -33 -10 -46 -21 -21
-17 -22 -21 -9 -37 8 -9 21 -38 27 -63 10 -37 10 -53 -1 -85 -14 -43 -44 -86
-68 -97 -8 -4 -26 -14 -40 -22 -16 -10 -54 -15 -107 -15 -80 0 -103 -9 -65
-26 9 -4 73 -10 142 -13 110 -5 129 -9 158 -29 32 -24 62 -77 62 -113 0 -41
-46 -100 -102 -129 -34 -18 -57 -20 -196 -20 -148 1 -159 2 -196 24 -79 49
-98 118 -46 174 28 31 29 35 15 55 -24 34 -19 81 13 114 l27 30 -27 38 c-22
29 -28 49 -28 86 0 46 3 52 60 109 l60 60 90 0 c79 0 92 3 110 22 11 12 20 25
20 29 0 12 31 17 99 16 46 -2 67 -6 74 -18z m-5398 -61 c19 -9 28 -9 37 0 8 8
47 12 103 12 90 0 90 0 133 -38 33 -28 46 -48 54 -82 13 -57 26 -360 16 -381
-8 -19 -76 -32 -113 -23 l-25 6 0 164 c0 159 -1 166 -25 205 -35 54 -65 67
-98 43 -52 -39 -57 -60 -57 -231 0 -87 -4 -164 -9 -171 -12 -20 -129 -21 -141
-2 -11 16 -14 468 -4 494 7 19 90 22 129 4z m797 -10 c53 -26 72 -48 103 -117
20 -43 34 -134 23 -143 -2 -1 -84 -4 -183 -7 l-180 -6 -3 -31 c-3 -26 4 -37
39 -68 24 -20 51 -36 61 -36 30 0 73 26 103 62 26 31 32 33 83 31 31 -2 60 -7
65 -12 5 -5 -1 -29 -15 -57 -45 -96 -158 -138 -309 -116 -47 7 -64 15 -103 52
-25 24 -46 49 -46 55 0 7 -7 18 -15 25 -12 10 -15 37 -15 123 0 116 10 146 64
202 52 53 86 64 188 65 80 0 105 -4 140 -22z m493 -23 c0 -37 -2 -40 -30 -45
-49 -8 -89 -36 -113 -78 -20 -36 -22 -53 -22 -191 l0 -151 -26 -10 c-33 -13
-80 -13 -105 0 -18 10 -19 24 -19 259 0 136 3 251 6 254 4 4 75 5 158 4 l151
-2 0 -40z m2575 11 c25 -18 53 -47 62 -65 9 -19 22 -39 27 -44 7 -7 11 -56 11
-118 0 -82 -3 -109 -15 -119 -8 -7 -15 -18 -15 -25 0 -24 -50 -73 -98 -97 -39
-19 -62 -23 -142 -23 -89 0 -98 2 -139 30 -27 18 -58 52 -77 85 -31 51 -33 61
-34 148 0 79 3 98 20 119 11 14 20 31 20 37 0 15 35 50 80 80 32 22 46 24 145
24 108 1 111 0 155 -32z m468 1 c4 -33 -13 -57 -39 -57 -27 0 -99 -47 -99 -64
0 -8 -6 -16 -12 -18 -10 -3 -14 -51 -18 -174 l-5 -169 -70 0 -70 0 -3 245 c-1
134 0 250 2 257 4 9 46 11 158 10 l153 -2 3 -28z m402 11 c43 -25 70 -64 70
-100 0 -13 4 -28 9 -34 10 -9 18 -350 9 -359 -2 -3 -26 -8 -52 -11 -40 -6 -52
-3 -78 16 -30 22 -32 22 -44 5 -12 -16 -29 -18 -121 -19 -100 -1 -110 1 -141
24 -106 80 -91 214 31 276 42 21 62 24 153 24 57 0 104 4 104 8 0 24 -35 74
-60 87 -49 26 -86 16 -147 -38 -18 -16 -31 -19 -70 -13 -61 8 -68 16 -53 61 9
26 25 44 58 65 45 29 51 30 170 30 109 0 127 -3 162 -22z m1040 7 c7 -8 18
-15 26 -15 19 0 61 -48 85 -97 15 -30 19 -57 17 -100 l-3 -58 -177 -3 -178 -2
0 -30 c0 -17 4 -30 10 -30 5 0 12 -10 15 -22 4 -14 22 -30 45 -41 38 -18 39
-18 77 6 21 14 48 36 60 51 19 21 31 26 72 26 53 0 87 -21 77 -47 -3 -8 -6
-18 -6 -22 0 -12 -72 -85 -105 -106 -37 -24 -194 -34 -248 -16 -43 14 -127 86
-127 109 0 8 -8 24 -17 35 -25 27 -24 208 1 236 9 9 16 22 16 27 0 11 63 73
100 98 34 22 241 24 260 1z m823 -4 c16 -10 40 -36 53 -57 23 -38 23 -46 24
-240 0 -175 -2 -203 -16 -208 -30 -12 -100 -6 -122 10 -19 13 -25 14 -39 2
-11 -9 -48 -13 -123 -13 -102 0 -107 1 -141 29 -20 17 -43 50 -56 84 -20 50
-21 57 -8 72 8 9 15 25 15 35 0 10 11 28 26 41 51 48 84 59 194 64 l105 5 3
31 c3 29 -1 34 -41 53 -53 26 -82 21 -128 -20 -25 -23 -42 -29 -76 -29 -81 0
-101 27 -63 85 38 60 79 73 230 74 116 1 139 -2 163 -18z m302 2 c13 -17 14
-17 32 0 16 13 38 17 108 17 103 0 135 -15 175 -84 24 -39 25 -51 28 -226 2
-112 -1 -191 -7 -200 -11 -17 -116 -19 -132 -3 -5 5 -11 92 -14 193 l-5 184
-27 23 c-37 29 -54 29 -85 -4 -60 -64 -68 -95 -68 -255 l0 -146 -27 -6 c-16
-4 -48 -3 -73 2 l-45 8 -3 243 c-2 171 1 248 9 257 18 21 118 19 134 -3z
m2248 1 c50 -25 85 -64 114 -123 23 -50 25 -63 21 -143 -4 -62 -10 -94 -22
-107 -9 -10 -16 -22 -16 -26 0 -12 -62 -75 -74 -75 -5 0 -18 -8 -28 -17 -28
-25 -227 -26 -255 0 -11 9 -23 17 -27 17 -14 0 -66 58 -66 74 0 8 -8 22 -17
32 -13 13 -18 39 -21 108 -4 83 -2 95 22 140 34 64 43 74 96 107 41 26 53 29
143 29 71 0 107 -5 130 -16z m326 -1 c9 -17 10 -17 28 0 16 13 38 17 108 17
79 0 93 -3 125 -25 20 -14 47 -45 59 -69 20 -41 21 -56 19 -232 l-3 -188 -34
-9 c-19 -4 -50 -5 -70 0 l-36 9 -5 187 -5 187 -30 25 c-16 13 -34 24 -40 24
-17 0 -61 -43 -83 -82 -20 -35 -22 -52 -22 -188 l0 -149 -27 -11 c-33 -13
-114 -4 -125 14 -13 21 -10 481 4 495 7 7 38 12 70 12 44 0 59 -4 67 -17z
m514 2 c8 -7 18 -31 22 -52 4 -20 13 -50 21 -65 8 -15 14 -37 14 -50 0 -13 6
-35 14 -50 11 -21 22 -68 26 -108 1 -14 39 76 45 107 4 21 12 44 18 51 5 7 14
32 18 55 4 23 14 60 22 82 15 40 16 40 72 43 72 4 90 -9 70 -49 -8 -15 -15
-39 -15 -52 0 -14 -6 -30 -14 -36 -8 -6 -17 -31 -20 -56 -4 -24 -14 -49 -21
-55 -8 -7 -15 -27 -15 -45 0 -18 -7 -38 -15 -45 -8 -7 -15 -24 -15 -37 0 -14
-6 -37 -14 -51 -7 -15 -18 -40 -22 -57 -11 -36 -60 -51 -125 -38 -36 7 -45 14
-53 38 -12 41 -46 133 -62 172 -8 17 -14 37 -14 45 0 8 -7 23 -15 34 -8 10
-15 31 -15 45 0 15 -7 32 -15 39 -8 7 -15 21 -15 32 0 11 -7 35 -16 54 -25 53
-15 64 60 64 43 0 69 -5 79 -15z m740 -4 c47 -24 87 -61 87 -82 0 -9 6 -22 14
-28 15 -13 30 -119 20 -144 -5 -15 -27 -17 -180 -17 -149 0 -176 -2 -181 -16
-7 -19 26 -84 47 -92 8 -3 23 -12 32 -20 26 -22 64 -7 113 43 37 39 49 45 85
45 97 0 106 -45 26 -125 -66 -66 -108 -79 -227 -72 -122 8 -154 29 -216 144
-35 65 -33 179 5 251 17 33 48 69 78 92 l49 39 105 0 c85 1 113 -3 143 -18z
m489 2 c0 -10 0 -29 -1 -43 -1 -23 0 -24 12 -8 8 10 31 29 51 43 34 23 46 25
147 25 101 0 114 -2 155 -26 51 -30 74 -58 74 -91 0 -47 -85 -59 -139 -19 -60
45 -87 51 -126 30 -19 -10 -35 -26 -35 -35 0 -19 67 -46 147 -59 29 -4 62 -15
75 -24 12 -9 30 -16 39 -16 10 0 29 -14 43 -31 35 -42 37 -135 4 -180 -46 -61
-80 -73 -218 -73 -113 -1 -129 1 -161 21 -53 34 -89 81 -89 120 0 40 19 51 81
48 55 -3 69 -10 69 -35 0 -22 61 -60 98 -60 33 0 92 35 92 54 0 21 -62 56
-101 56 -19 1 -45 7 -59 15 -14 8 -36 14 -49 15 -32 0 -82 35 -109 75 -24 34
-28 75 -12 106 9 17 7 19 -16 19 -34 0 -83 -30 -112 -69 -21 -28 -22 -40 -22
-190 0 -181 0 -181 -80 -181 -83 0 -80 -11 -80 269 0 136 3 251 7 254 3 4 75
7 160 7 138 0 153 -2 155 -17z m656 5 c9 -9 12 -79 12 -255 0 -223 -2 -244
-17 -250 -26 -10 -120 -10 -130 0 -12 13 -15 475 -3 498 9 15 22 19 68 19 32
0 63 -5 70 -12z m459 -10 c40 -24 64 -49 100 -107 19 -30 22 -51 23 -129 0
-78 -4 -100 -22 -134 -26 -47 -73 -98 -90 -98 -6 0 -20 -8 -30 -17 -29 -26
-211 -25 -253 2 -48 30 -95 78 -95 96 0 9 -7 22 -15 29 -24 20 -21 194 5 245
26 50 74 105 93 105 8 0 20 7 27 15 10 12 36 15 116 15 88 0 108 -3 141 -22z
m314 6 c17 -15 19 -15 34 0 13 12 37 16 103 16 102 0 124 -9 169 -69 l33 -43
-2 -201 -3 -202 -38 -6 c-21 -3 -53 -3 -70 0 l-32 7 -3 186 -2 186 -35 26
c-38 29 -54 27 -90 -16 -50 -58 -55 -78 -55 -232 l0 -146 -25 -12 c-17 -8 -40
-8 -73 -2 l-47 9 -3 245 c-1 134 0 250 3 257 7 20 114 17 136 -3z"/>
<path d="M18164 4845 c-10 -8 -28 -15 -40 -15 -21 0 -74 -48 -74 -67 0 -6 -7
-16 -15 -23 -11 -9 -15 -32 -15 -81 0 -97 37 -156 119 -187 59 -23 108 -26
136 -8 13 9 30 16 38 16 19 0 81 69 100 112 23 49 21 82 -5 135 -24 47 -79
103 -102 103 -8 0 -27 7 -42 15 -37 19 -75 19 -100 0z"/>
<path d="M6785 4966 c-49 -27 -99 -98 -90 -126 7 -23 53 -27 87 -9 12 6 64 14
117 18 l96 6 3 29 c4 33 -24 64 -78 85 -58 22 -92 21 -135 -3z"/>
<path d="M16630 4845 c-14 -8 -35 -14 -47 -15 -31 0 -88 -53 -112 -104 -25
-50 -27 -94 -6 -122 8 -10 15 -27 15 -36 0 -21 81 -88 106 -88 10 -1 30 -7 44
-15 33 -19 71 -19 96 0 10 8 28 15 38 15 11 0 41 22 67 49 37 39 49 59 54 94
10 64 0 96 -45 149 -33 38 -52 50 -107 67 -78 25 -71 24 -103 6z"/>
<path d="M23510 4620 c-52 -3 -120 -13 -150 -22 -30 -9 -91 -24 -135 -34 -44
-10 -87 -23 -96 -31 -8 -7 -20 -13 -25 -13 -22 0 -131 -50 -155 -72 -15 -12
-35 -24 -45 -26 -11 -2 -31 -12 -46 -23 -15 -10 -32 -19 -38 -19 -6 0 -13 -7
-16 -15 -4 -8 -12 -15 -18 -15 -7 0 -27 -15 -45 -34 -18 -19 -57 -51 -87 -72
-29 -22 -56 -47 -60 -57 -3 -10 -16 -25 -30 -33 -13 -9 -24 -22 -24 -29 0 -8
-8 -21 -17 -31 -18 -18 -33 -40 -55 -84 -7 -14 -24 -45 -39 -70 -15 -25 -35
-72 -44 -105 -10 -33 -25 -77 -33 -99 -24 -57 -24 -434 -1 -491 10 -22 25 -69
34 -105 18 -69 50 -146 65 -155 5 -3 12 -19 15 -36 9 -39 42 -96 60 -103 17
-6 82 11 90 24 4 6 14 10 24 10 10 0 30 9 44 20 14 11 39 20 56 20 18 0 48 7
68 15 24 10 70 15 140 15 69 0 115 -5 140 -15 19 -8 44 -15 54 -15 44 0 269
-183 301 -245 6 -11 31 -46 55 -77 23 -31 43 -59 43 -62 0 -11 66 -72 100 -93
19 -11 48 -24 65 -28 16 -3 33 -12 37 -18 5 -9 68 -12 220 -12 184 0 221 3
273 20 33 10 67 25 76 32 8 7 22 13 30 13 26 1 66 45 89 98 5 12 14 22 19 22
5 0 21 21 36 47 35 63 87 132 100 133 6 0 22 13 35 28 39 44 132 91 230 116
119 31 326 15 416 -32 10 -5 39 -20 64 -32 25 -13 47 -26 50 -29 3 -3 21 -17
40 -30 45 -32 130 -113 130 -124 0 -21 92 -127 111 -127 10 0 19 -6 19 -13 0
-17 47 -42 138 -72 103 -34 303 2 442 80 35 19 102 84 125 120 30 48 33 178 6
237 -11 26 -21 52 -21 57 0 15 -39 89 -73 140 l-30 44 -12 -40 c-12 -41 -22
-56 -63 -96 -26 -26 -127 -52 -169 -44 -97 20 -106 25 -154 91 -34 45 -38 102
-12 144 25 42 82 92 103 92 10 0 22 5 25 10 3 6 15 10 26 10 10 0 19 4 19 9 0
15 -50 51 -79 57 -14 3 -41 12 -59 20 -18 8 -47 14 -65 14 -18 1 -50 9 -72 20
-22 11 -54 19 -72 20 -17 0 -33 5 -35 11 -2 5 -19 14 -38 19 -145 36 -421 188
-545 299 -86 78 -229 232 -260 280 -21 33 -136 151 -195 200 -66 55 -147 114
-167 122 -13 5 -23 13 -23 18 0 5 -10 13 -22 17 -13 4 -26 11 -29 16 -10 15
-113 78 -139 85 -14 3 -49 19 -78 35 -29 15 -63 28 -76 28 -14 0 -45 9 -71 20
-26 11 -58 20 -72 20 -14 0 -48 6 -76 14 -59 17 -208 23 -347 16z m-539 -251
c23 -47 39 -92 39 -108 0 -23 96 -215 116 -231 7 -7 14 -17 14 -23 0 -19 135
-157 154 -157 8 0 31 -16 52 -35 21 -19 48 -35 61 -35 13 0 23 -4 23 -8 0 -10
83 -47 127 -57 18 -3 35 -11 38 -16 4 -5 16 -9 28 -9 12 -1 40 -8 62 -16 22
-8 90 -17 150 -20 61 -3 126 -10 145 -15 45 -12 299 -12 371 0 30 5 131 11
223 12 157 3 169 2 183 -16 13 -18 11 -22 -14 -43 -15 -13 -42 -30 -60 -38
-17 -7 -34 -18 -38 -24 -3 -5 -25 -10 -48 -10 -23 0 -55 -7 -72 -16 -16 -9
-66 -20 -110 -25 -44 -4 -100 -13 -125 -18 -55 -12 -324 -13 -400 -1 -30 5
-98 14 -150 20 -52 6 -104 15 -115 20 -11 5 -39 12 -63 15 -24 4 -56 13 -70
21 -15 8 -41 14 -58 14 -17 0 -37 7 -44 15 -7 8 -19 15 -27 15 -29 0 -243 103
-301 144 -76 56 -189 176 -198 213 -4 15 -13 38 -20 52 -9 17 -14 64 -14 138
0 96 3 119 21 154 12 22 28 43 35 46 7 2 15 15 18 28 9 34 52 43 67 14z m637
-1202 c7 -7 17 -38 23 -68 6 -30 15 -58 19 -64 4 -5 11 -26 15 -45 8 -44 68
-162 110 -217 18 -23 51 -58 75 -78 55 -46 195 -115 233 -115 42 0 117 -39
117 -61 0 -25 -10 -29 -93 -38 -195 -21 -338 27 -464 156 -40 41 -73 82 -73
92 0 10 -7 24 -15 31 -15 12 -39 88 -49 155 -8 50 23 216 47 253 11 16 42 15
55 -1z"/>
<path d="M26025 3130 c-3 -5 1 -10 9 -10 8 0 18 5 21 10 3 6 -1 10 -9 10 -8 0
-18 -4 -21 -10z"/>
<path d="M24705 2509 c-9 -14 -2 -20 14 -10 8 6 9 11 3 15 -6 3 -14 1 -17 -5z"/>
<path d="M24665 2470 c-3 -5 -1 -10 4 -10 6 0 11 5 11 10 0 6 -2 10 -4 10 -3
0 -8 -4 -11 -10z"/>
<path d="M24930 2365 c-7 -8 -18 -15 -26 -15 -21 0 -54 -55 -54 -90 0 -114
149 -178 264 -114 67 37 78 66 56 146 -15 54 -78 88 -163 88 -45 0 -68 -5 -77
-15z"/>
<path d="M6467 2379 c-59 -49 -51 -59 49 -59 74 0 85 2 80 16 -3 9 -6 19 -6
24 0 8 -65 50 -78 50 -4 0 -24 -14 -45 -31z"/>
<path d="M22773 2483 c-30 -6 -63 -54 -63 -92 0 -32 25 -71 46 -71 6 0 17 -7
24 -15 27 -32 168 -1 184 40 15 40 6 86 -22 114 -24 25 -35 28 -87 28 -33 0
-70 -2 -82 -4z"/>
<path d="M7235 2377 c-27 -23 -37 -39 -32 -50 5 -14 21 -17 97 -17 49 0 90 4
90 9 0 22 -30 64 -55 77 -40 21 -58 17 -100 -19z"/>
<path d="M11315 2202 c-47 -19 -55 -28 -55 -63 0 -26 36 -69 59 -69 18 0 71
30 104 59 19 18 27 34 27 58 0 33 0 33 -47 32 -27 -1 -66 -8 -88 -17z"/>
<path d="M12932 2386 l-37 -35 0 -101 0 -101 37 -34 c41 -40 45 -40 83 -21 45
24 68 72 68 147 0 80 -23 138 -65 162 -40 23 -43 22 -86 -17z"/>
<path d="M13457 2395 c-15 -14 -27 -32 -27 -39 0 -8 -7 -19 -15 -26 -10 -9
-15 -31 -15 -74 0 -71 26 -130 73 -163 l30 -22 36 21 c59 34 81 78 81 161 0
79 -25 131 -67 142 -13 3 -23 10 -23 15 0 19 -46 10 -73 -15z"/>
<path d="M20257 820 c-20 -17 -39 -44 -42 -60 -4 -17 -11 -32 -16 -35 -14 -9
-11 -74 5 -103 8 -15 17 -38 20 -52 3 -14 17 -33 31 -43 25 -18 27 -18 64 0
54 26 81 76 81 153 0 47 -5 69 -25 100 -14 22 -30 40 -37 40 -6 0 -19 7 -29
16 -15 14 -20 13 -52 -16z"/>
<path d="M14474 885 c-4 -9 3 -33 15 -55 33 -60 28 -109 -18 -167 -52 -66 -90
-83 -185 -83 -42 0 -76 -3 -76 -6 0 -24 43 -33 151 -34 124 0 125 -1 187 -62
18 -18 22 -34 22 -80 0 -49 3 -58 18 -58 22 1 51 23 72 55 16 24 16 29 0 73
-9 26 -21 57 -28 69 -7 12 -12 30 -12 40 0 11 -7 28 -15 39 -8 10 -15 28 -15
39 0 11 -9 37 -20 58 -11 20 -20 45 -20 55 0 10 -3 22 -7 26 -5 4 -15 28 -23
53 -16 49 -36 66 -46 38z"/>
<path d="M14231 819 c-30 -27 -33 -34 -27 -67 5 -35 37 -71 63 -72 6 0 28 9
47 21 30 17 36 27 36 54 0 27 -8 40 -37 64 -21 17 -40 31 -43 31 -3 0 -21 -14
-39 -31z"/>
<path d="M14182 438 c-18 -18 -15 -58 6 -64 9 -4 31 -12 49 -20 38 -17 75 -18
90 -3 7 7 29 15 50 18 53 9 55 34 4 60 -46 24 -178 30 -199 9z"/>
<path d="M17816 810 c-39 -44 -39 -58 2 -102 29 -32 52 -35 86 -12 49 32 44
102 -11 134 -19 11 -36 20 -37 20 -2 0 -20 -18 -40 -40z"/>
<path d="M17766 431 c-9 -10 -14 -25 -11 -33 7 -18 89 -58 118 -57 33 1 140
43 144 56 3 7 -14 21 -36 32 -56 29 -190 30 -215 2z"/>
<path d="M13368 832 c-35 -23 -71 -69 -63 -82 8 -12 205 -14 205 -1 0 22 -31
65 -59 82 -39 23 -49 24 -83 1z"/>
<path d="M16408 827 c-16 -13 -28 -26 -28 -31 0 -4 -9 -19 -20 -33 -28 -36
-27 -123 2 -172 46 -78 89 -102 118 -66 7 8 18 15 24 15 6 0 21 18 34 40 33
57 31 152 -3 203 -14 20 -32 37 -39 37 -8 0 -19 7 -26 15 -17 20 -30 18 -62
-8z"/>
<path d="M17283 630 c-47 -25 -63 -40 -63 -59 0 -24 42 -61 68 -61 50 0 132
77 132 124 0 22 -93 20 -137 -4z"/>
<path d="M18357 826 c-20 -11 -37 -26 -37 -32 0 -6 -7 -17 -15 -24 -27 -23 -5
-30 91 -30 88 0 94 1 94 21 0 24 -20 46 -64 70 -30 16 -33 16 -69 -5z"/>
<path d="M19138 627 c-58 -25 -70 -57 -37 -93 26 -27 61 -31 79 -9 7 8 19 15
27 15 24 0 52 42 53 78 0 31 -2 32 -37 31 -21 -1 -59 -10 -85 -22z"/>
<path d="M21722 828 c-18 -11 -32 -26 -32 -33 0 -7 -7 -18 -15 -25 -11 -9 -15
-33 -15 -90 0 -57 4 -81 15 -90 8 -7 15 -18 15 -24 0 -15 54 -56 73 -56 8 0
20 7 27 15 7 8 18 15 24 15 25 0 56 78 56 141 0 75 -23 118 -79 147 -38 20
-38 20 -69 0z"/>
<path d="M23297 825 c-20 -14 -37 -32 -37 -40 0 -8 -4 -15 -10 -15 -5 0 -10
-7 -10 -15 0 -13 15 -15 98 -13 89 3 97 5 97 22 0 18 -75 86 -93 86 -4 0 -24
-11 -45 -25z"/>
<path d="M24893 824 c-18 -14 -33 -31 -33 -39 0 -7 -7 -18 -15 -25 -25 -21
-20 -134 7 -179 25 -41 57 -70 76 -71 18 0 63 30 89 59 19 22 22 38 23 109 0
70 -3 87 -22 112 -12 17 -27 30 -34 30 -6 0 -17 7 -24 15 -17 21 -30 19 -67
-11z"/>
</g>
</svg>
