<?xml version="1.0" encoding="UTF-8" standalone="no"?>
<!DOCTYPE svg PUBLIC "-//W3C//DTD SVG 1.1//EN" "http://www.w3.org/Graphics/SVG/1.1/DTD/svg11.dtd">
<svg xmlns="http://www.w3.org/2000/svg" xmlns:xlink="http://www.w3.org/1999/xlink" version="1.1" width="576pt" height="306pt" viewBox="0 0 576 306">
<g enable-background="new">
<g id="Layer-1" data-name="Layer 1">
<path transform="matrix(1,0,0,-1,0,306)" d="M 485.88 118.171 L 154.694 118.171 L 154.694 186.534 L 485.88 186.534 Z " fill="#fcb131"/>
<clipPath id="cp0">
<path transform="matrix(1,0,0,-1,0,306)" d="M 0 306 L 576 306 L 576 0 L 0 0 Z "/>
</clipPath>
<g clip-path="url(#cp0)">
<path transform="matrix(1,0,0,-1,295.1611,133.8848)" d="M 0 0 C .44 -2.37 .246 -4.959 .267 -7.549 L -9.016 -7.605 L -9.062 -.054 Z " fill="#231f20"/>
<path transform="matrix(1,0,0,-1,270.8262,141.585)" d="M 0 0 L 9.604 -.483 L 9.656 -8.466 L .059 -9.066 C -.03 -12.3 -1.183 -16.625 1.091 -19.198 C 3.697 -21.016 6.491 -19.921 9.731 -20.227 L 9.774 -27.447 C 3.954 -27.596 -3.375 -28.933 -7.395 -24.431 C -11.733 -20.575 -9.074 -14.731 -9.863 -9.453 L -9.968 7.27 L -.365 7.332 Z " fill="#231f20"/>
<path transform="matrix(1,0,0,-1,415.665,133.8813)" d="M 0 0 C .233 -2.149 -.187 -5.066 .374 -7.328 C 3.181 -8.282 6.629 -7.612 9.649 -7.704 L 10.023 -16.116 L .644 -16.175 C .446 -19.521 -1.354 -25.14 2.326 -27.273 L 9.558 -27.23 C 10.435 -29.597 10.129 -32.726 9.826 -35.319 C 3.132 -35.042 -5.055 -36.814 -8.332 -29.935 L -9.43 -26.593 L -9.275 -.053 Z " fill="#231f20"/>
<path transform="matrix(1,0,0,-1,475.1133,168.8916)" d="M 0 0 L -9.278 -.272 L -9.281 35.007 L .102 34.851 Z " fill="#231f20"/>
<path transform="matrix(1,0,0,-1,187.6553,141.5703)" d="M 0 0 C .877 -2.261 .68 -5.283 .26 -7.766 C -3.839 -7.899 -8.7 -6.634 -11.917 -9.676 C -13.63 -11.415 -13.83 -14.329 -12.844 -16.479 C -10.222 -21.536 -4.302 -19.555 .342 -19.959 L .384 -27.512 C -7.27 -27.988 -15.681 -28.797 -20.686 -21.921 C -23.302 -17.408 -23.674 -10.295 -20.462 -5.849 C -15.868 .869 -7.23 -.048 0 0 " fill="#231f20"/>
<path transform="matrix(1,0,0,-1,255.0107,147.9448)" d="M 0 0 C 2.199 -6.889 .194 -13.696 .891 -21.246 L -8.177 -21.304 L -8.601 -4.158 C -10.461 -1.142 -14.438 -2.465 -17.678 -2.161 L -18.214 -2.92 L -18.635 -21.367 L -27.916 -21.426 L -28.084 5.865 C -18.582 4.306 -5.351 10.213 0 0 " fill="#231f20"/>
<path transform="matrix(1,0,0,-1,329.2334,148.2305)" d="M 0 0 C 1.442 -6.357 .848 -14.021 .671 -20.818 L -8.391 -20.874 L -9.041 -2.861 C -11.207 -1.044 -14.764 -2.253 -17.57 -1.943 L -18.106 -2.704 L -18.313 -20.614 L -27.917 -21.003 L -28.087 6.08 L -27.549 6.621 C -18.694 5.167 -4.706 10.862 0 0 " fill="#231f20"/>
<path transform="matrix(1,0,0,-1,365.8691,141.5259)" d="M 0 0 C 2.527 -7.106 -2.725 -11.886 -5.824 -17.193 L -15.204 -17.25 C -13.718 -13.893 -11.151 -11.183 -9.873 -7.832 C -12.141 -6.981 -15.378 -7.221 -17.856 -7.56 C -19.47 -8.541 -21.508 -10.169 -21.715 -12.004 C -22.023 -14.058 -21.366 -15.671 -20.39 -17.282 L -17.566 -19.31 L .128 -19.747 L .178 -27.51 C -10.935 -27.366 -25.376 -30.481 -30.522 -18.317 C -32.166 -13.904 -31.229 -8.504 -28.558 -4.82 C -21.81 3.423 -9.594 -.818 0 0 " fill="#231f20"/>
<path transform="matrix(1,0,0,-1,399.8926,147.4634)" d="M 0 0 C 2.846 -6.885 1.384 -13.905 1.43 -21.563 L -7.307 -21.622 L -7.852 -20.656 L -8.282 -4.041 C -9.814 -.708 -14.116 -2.785 -17.035 -2.263 C -18.07 -8.314 -17.166 -15.209 -17.774 -21.467 L -27.053 -21.533 L -27.01 5.98 C -17.613 4.853 -5.131 9.569 0 0 " fill="#231f20"/>
<path transform="matrix(1,0,0,-1,459.791,168.9863)" d="M 0 0 L -9.059 -.27 L -9.18 18.715 C -11.986 19.022 -16.956 20.609 -19.858 18.108 C -21.354 16.478 -22.313 14.316 -21.649 12.059 C -20.434 7.207 -15.043 7.565 -11.478 6.941 L -11.648 -.286 C -17.574 -.76 -22.868 -.145 -26.996 3.71 C -30.244 6.826 -31.456 10.697 -31.272 15.123 C -30.651 19.765 -27.45 24.427 -23.029 26.396 C -15.927 28.272 -7.398 27.358 .154 27.296 Z " fill="#231f20"/>
<path transform="matrix(1,0,0,-1,295.2266,144.0239)" d="M 0 0 C .48 -7.873 .536 -16.716 .154 -24.919 L -9.226 -25.304 C -9.068 -16.776 -9.771 -7.292 -8.848 .161 C -5.937 .179 -2.809 .414 0 0 " fill="#231f20"/>
<path transform="matrix(1,0,0,-1,205.0674,148.4771)" d="M 0 0 C -2.376 -.661 -4.516 -2.292 -5.37 -4.67 C -6.109 -7.481 -5.334 -10.065 -3.276 -11.991 C -1.321 -13.164 1.059 -13.91 3.533 -13.246 C 5.364 -12.263 7.619 -10.742 8.145 -8.576 C 8.664 -6.094 8.003 -3.507 6.051 -1.793 C 4.424 -.183 2.367 .34 0 0 M 16.397 -.114 C 18.251 -3.229 18.497 -7.971 17.222 -11.327 C 15.852 -16.188 10.8 -19.671 6.169 -20.779 C .671 -21.462 -6.343 -21.4 -10.793 -17.002 C -14.267 -13.361 -16.236 -8.73 -14.98 -3.438 C -14.03 .454 -11.138 3.707 -7.483 5.886 C .585 8.851 11.595 8.811 16.397 -.114 " fill="#231f20"/>
<path transform="matrix(1,0,0,-1,122.3271,159.5244)" d="M 0 0 C -3.228 0 -5.847 2.619 -5.847 5.854 C -5.847 9.077 -3.228 11.701 0 11.701 C 1.173 11.701 2.261 11.351 3.178 10.76 L 9.876 16.777 C 7.264 19.146 3.806 20.6 0 20.6 C -8.144 20.6 -14.747 13.992 -14.747 5.854 C -14.747 -2.294 -8.144 -8.896 0 -8.896 C 3.934 -8.896 7.494 -7.349 10.143 -4.841 L 4.417 2.024 C 3.342 .789 1.765 0 0 0 " fill="#fcb131" fill-rule="evenodd"/>
<path transform="matrix(1,0,0,-1,132.4829,156.5498)" d="M 0 0 L 0 3.729 C 0 4.116 -.165 4.452 -.657 4.452 C -1.147 4.452 -1.321 4.116 -1.321 3.729 L -1.321 0 L -3.392 0 L -3.392 4.066 C -3.392 5.525 -2.133 6.449 -.746 6.449 C -.089 6.449 .585 6.071 1.035 5.566 C 1.492 6.071 2.163 6.449 2.823 6.449 C 4.21 6.449 5.465 5.525 5.465 4.066 L 5.465 0 L 3.392 0 L 3.392 3.729 C 3.392 4.116 3.224 4.452 2.731 4.452 C 2.241 4.452 2.074 4.116 2.074 3.729 L 2.074 0 Z " fill="#231f20"/>
<path transform="matrix(1,0,0,-1,138.5171,150.2554)" d="M 0 0 L 2.074 0 L 2.074 -3.733 C 2.074 -4.117 2.241 -4.458 2.731 -4.458 C 3.224 -4.458 3.392 -4.117 3.392 -3.733 L 3.392 0 L 5.465 0 L 5.465 -3.733 C 5.465 -4.117 5.633 -4.458 6.123 -4.458 C 6.616 -4.458 6.784 -4.117 6.784 -3.733 L 6.784 0 L 8.854 0 L 8.854 -4.065 C 8.854 -5.529 7.599 -6.449 6.211 -6.449 C 5.554 -6.449 4.88 -6.087 4.427 -5.565 C 3.977 -6.087 3.303 -6.449 2.642 -6.449 C 1.255 -6.449 0 -5.529 0 -4.065 Z " fill="#231f20"/>
<path transform="matrix(1,0,0,-1,122.3271,149.5239)" d="M 0 0 C -2.291 0 -4.147 -1.855 -4.147 -4.146 C -4.147 -6.444 -2.291 -8.298 0 -8.298 C 2.294 -8.298 4.151 -6.444 4.151 -4.146 C 4.151 -1.855 2.294 0 0 0 " fill="#231f20"/>
<path transform="matrix(1,0,0,-1,121.499,153.5894)" d="M 0 0 C -.253 -.173 -.355 -.422 -.355 -.704 C -.355 -1.251 .042 -1.649 .513 -1.649 C .752 -1.649 .996 -1.577 1.164 -1.458 Z M 2.047 1.387 L .46 1.387 L 1.969 -.536 C 2.047 -.132 1.87 .264 1.607 .565 L 2.508 1.419 C 2.961 .933 3.29 .401 3.29 -.281 C 3.29 -.773 3.142 -1.176 2.833 -1.56 L 3.763 -2.717 L 2.126 -2.717 L 1.916 -2.441 C 1.449 -2.773 1.032 -2.869 .49 -2.869 C -.782 -2.869 -1.673 -1.846 -1.673 -.742 C -1.673 -.018 -1.285 .609 -.763 .933 C -.953 1.132 -1.118 1.374 -1.118 1.66 C -1.118 2.292 -.598 2.506 -.043 2.506 L 2.047 2.506 Z " fill="#ffffff"/>
<path transform="matrix(1,0,0,-1,147.6343,134.9741)" d="M 0 0 L .033 7.281 L -27.641 7.281 C -27.641 7.281 -50.834 7.103 -50.834 -17.797 C -50.834 -43.422 -27.375 -44.231 -27.375 -44.231 L -.296 -44.231 L -.296 -36.951 L -26.023 -36.951 C -26.023 -36.951 -43.101 -35.961 -43.101 -18.61 C -43.101 -.09 -27.917 0 -27.917 0 Z " fill="#231f20" fill-rule="evenodd"/>
<path transform="matrix(1,0,0,-1,0,306)" stroke-width="2.158" stroke-linecap="butt" stroke-miterlimit="4" stroke-linejoin="miter" fill="none" stroke="#231f20" d="M 485.88 187.099 L 90.18399 187.099 L 90.18399 118.171 L 485.88 118.171 Z "/>
<path transform="matrix(1,0,0,-1,154.6938,119.46629)" stroke-width="2.158" stroke-linecap="butt" stroke-miterlimit="4" stroke-linejoin="miter" fill="none" stroke="#231f20" d="M 0 0 L 0 -67.422 "/>
</g>
</g>
</g>
</svg>
